HIERARCHY
ROOT Hips
{
	OFFSET 0.000000 0.000000 0.000000
	CHANNELS 6 Xposition Yposition Zposition Zrotation Yrotation Xrotation 
	JOINT LHipJoint
	{
		OFFSET 0.000000 0.000000 0.000000
		CHANNELS 3 Zrotation Yrotation Xrotation
		JOINT LeftUpLeg
		{
			OFFSET 1.363060 -1.794630 0.839290
			CHANNELS 3 Zrotation Yrotation Xrotation
			JOINT LeftLeg
			{
				OFFSET 2.448110 -6.726130 0.000000
				CHANNELS 3 Zrotation Yrotation Xrotation
				JOINT LeftFoot
				{
					OFFSET 2.562200 -7.039590 0.000000
					CHANNELS 3 Zrotation Yrotation Xrotation
					JOINT LeftToeBase
					{
						OFFSET 0.157640 -0.433110 2.322550
						CHANNELS 3 Zrotation Yrotation Xrotation
						End Site
						{
							OFFSET 0.000000 0.000000 0.000000
						}
					}
				}
			}
		}
	}
	JOINT RHipJoint
	{
		OFFSET 0.000000 0.000000 0.000000
		CHANNELS 3 Zrotation Yrotation Xrotation
		JOINT RightUpLeg
		{
			OFFSET -1.305520 -1.794630 0.839290
			CHANNELS 3 Zrotation Yrotation Xrotation
			JOINT RightLeg
			{
				OFFSET -2.542530 -6.985550 0.000000
				CHANNELS 3 Zrotation Yrotation Xrotation
				JOINT RightFoot
				{
					OFFSET -2.568260 -7.056230 0.000000
					CHANNELS 3 Zrotation Yrotation Xrotation
					JOINT RightToeBase
					{
						OFFSET -0.164730 -0.452590 2.363150
						CHANNELS 3 Zrotation Yrotation Xrotation
						End Site
						{
							OFFSET 0.000000 0.000000 0.000000
						}
					}
				}
			}
		}
	}
	JOINT LowerBack
	{
		OFFSET 0.000000 0.000000 0.000000
		CHANNELS 3 Zrotation Yrotation Xrotation
		JOINT Spine
		{
			OFFSET 0.028270 2.035590 -0.193380
			CHANNELS 3 Zrotation Yrotation Xrotation
			JOINT Spine1
			{
				OFFSET 0.056720 2.048850 -0.042750
				CHANNELS 3 Zrotation Yrotation Xrotation
				JOINT Neck
				{
					OFFSET 0.000000 0.000000 0.000000
					CHANNELS 3 Zrotation Yrotation Xrotation
					JOINT Neck1
					{
						OFFSET -0.054170 1.746240 0.172020
						CHANNELS 3 Zrotation Yrotation Xrotation
						JOINT Head
						{
							OFFSET 0.104070 1.761360 -0.123970
							CHANNELS 3 Zrotation Yrotation Xrotation
							End Site
							{
								OFFSET 0.000000 0.000000 0.000000
							}
						}
					}
				}
				JOINT LeftShoulder
				{
					OFFSET 0.000000 0.000000 0.000000
					CHANNELS 3 Zrotation Yrotation Xrotation
					JOINT LeftArm
					{
						OFFSET 3.362410 1.200890 -0.311210
						CHANNELS 3 Zrotation Yrotation Xrotation
						JOINT LeftForeArm
						{
							OFFSET 4.983000 -0.000000 -0.000000
							CHANNELS 3 Zrotation Yrotation Xrotation
							JOINT LeftHand
							{
								OFFSET 3.483560 -0.000000 -0.000000
								CHANNELS 3 Zrotation Yrotation Xrotation
								JOINT LeftFingerBase
								{
									OFFSET 0.000000 0.000000 0.000000
									CHANNELS 3 Zrotation Yrotation Xrotation
									JOINT LeftHandIndex1
									{
										OFFSET 0.715260 -0.000000 -0.000000
										CHANNELS 3 Zrotation Yrotation Xrotation
										End Site
										{
											OFFSET 0.000000 0.000000 0.000000
										}
									}
								}
								JOINT LThumb
								{
									OFFSET 0.000000 0.000000 0.000000
									CHANNELS 3 Zrotation Yrotation Xrotation
									End Site
									{
										OFFSET 0.000000 0.000000 0.000000
									}
								}
							}
						}
					}
				}
				JOINT RightShoulder
				{
					OFFSET 0.000000 0.000000 0.000000
					CHANNELS 3 Zrotation Yrotation Xrotation
					JOINT RightArm
					{
						OFFSET -3.136600 1.374050 -0.404650
						CHANNELS 3 Zrotation Yrotation Xrotation
						JOINT RightForeArm
						{
							OFFSET -5.241900 -0.000000 -0.000000
							CHANNELS 3 Zrotation Yrotation Xrotation
							JOINT RightHand
							{
								OFFSET -3.444170 -0.000000 -0.000000
								CHANNELS 3 Zrotation Yrotation Xrotation
								JOINT RightFingerBase
								{
									OFFSET 0.000000 0.000000 0.000000
									CHANNELS 3 Zrotation Yrotation Xrotation
									JOINT RightHandIndex1
									{
										OFFSET -0.622530 -0.000000 -0.000000
										CHANNELS 3 Zrotation Yrotation Xrotation
										End Site
										{
											OFFSET 0.000000 0.000000 0.000000
										}
									}
								}
								JOINT RThumb
								{
									OFFSET 0.000000 0.000000 0.000000
									CHANNELS 3 Zrotation Yrotation Xrotation
									End Site
									{
										OFFSET 0.000000 0.000000 0.000000
									}
								}
							}
						}
					}
				}
			}
		}
	}
}
MOTION
Frames: 8
Frame Time: 0.008333
23.719237 16.412770 3.566070 -164.953964 -80.339604 -160.370059 -12.409158 2.702023 -3.073235 -5.260263 10.379368 -13.324316 -0.666468 1.399923 27.270657 1.653105 7.623594 22.875097 3.107600 -0.000000 -88.459200 7.598524 0.583383 4.788760 3.599569 15.423889 -63.996555 1.999174 -1.323882 26.111711 -0.241657 -0.703504 1.627072 -0.875700 0.000000 -25.781500 14.557653 -1.815467 2.127810 2.174400 -2.335916 -2.410056 -6.640475 -2.494844 1.344860 9.893334 -0.874411 0.638807 -4.202588 -0.357687 1.906961 0.000000 0.000000 0.000000 -10.114515 -2.569405 1.249000 -76.834267 -15.151652 26.825578 -2.150904 -26.730453 -0.010136 4.719012 -0.680101 -0.033982 -0.069318 0.145742 0.000000 0.000000 0.000000 0.000000 0.000000 0.000000 0.000000 18.551988 -4.066739 0.356604 58.714280 -2.462244 -6.531759 3.665864 20.937035 0.010201 2.594245 5.652502 0.125108 0.081556 -0.038920 0.000000 0.000000 0.000000 0.000000 0.000000 0.000000 0.000000 
23.585322 16.417466 3.524604 -162.439201 -80.527606 -162.676947 -12.422509 2.517846 -3.185300 -4.609711 10.527772 -14.066205 -0.578477 1.459766 28.778456 1.731823 7.488342 24.016178 3.102500 -0.000001 -85.084700 7.526115 0.566601 4.622755 4.152780 15.730043 -64.065901 1.991149 -1.442576 27.587270 -0.345511 -0.826056 0.066392 -0.821500 0.000000 -24.425800 14.933284 -1.886789 2.487672 2.244717 -2.376367 -2.343894 -6.713225 -2.541945 1.280242 10.332999 -0.159543 0.897206 -4.228678 -0.359244 1.966946 0.000000 0.000000 0.000000 -9.692500 -2.849735 1.274009 -77.365573 -15.342080 26.017523 -2.087347 -26.175981 -0.011703 5.250236 -0.710634 -0.039413 -0.069379 0.147915 0.000000 0.000000 0.000000 0.000000 0.000000 0.000000 0.000000 19.085035 -3.503150 0.406482 58.246639 -1.240389 -7.456321 3.659833 19.866363 0.009848 2.527742 5.512885 0.118900 0.080523 -0.039049 0.000000 0.000000 0.000000 0.000000 0.000000 0.000000 0.000000 
23.456348 16.426478 3.480519 -160.279546 -80.805944 -164.684225 -12.424122 2.333867 -3.293180 -4.019102 10.596951 -14.822885 -0.501790 1.523790 30.342687 1.818270 7.465267 25.065561 3.144500 0.000000 -80.895700 7.466597 0.570869 4.434889 4.633664 15.917765 -63.923051 1.989117 -1.522819 28.760694 -0.467459 -1.029761 -1.459346 -0.774300 0.000000 -23.254000 15.205493 -1.989621 2.853043 2.296341 -2.443094 -2.274255 -6.777478 -2.614835 1.216231 10.814781 0.527722 1.180466 -4.247213 -0.360484 2.033881 0.000000 0.000000 0.000000 -9.113108 -3.230639 1.291499 -77.921328 -15.511513 25.231039 -2.028027 -25.668024 -0.013240 5.762831 -0.735832 -0.044642 -0.069970 0.149924 0.000000 0.000000 0.000000 0.000000 0.000000 0.000000 0.000000 19.624980 -2.987683 0.453970 57.849589 0.062315 -8.519917 3.636012 18.804885 0.009445 2.365392 5.355917 0.107892 0.079640 -0.039633 0.000000 0.000000 0.000000 0.000000 0.000000 0.000000 0.000000 
23.331115 16.439077 3.434148 -158.442621 -81.189828 -166.413373 -12.411869 2.156409 -3.387047 -3.499978 10.570692 -15.600249 -0.436673 1.591247 31.939979 1.909833 7.599082 25.945980 3.257900 -0.000000 -76.013700 7.426186 0.594677 4.231219 5.041390 15.968535 -63.608977 1.989696 -1.572399 29.660476 -0.602273 -1.305700 -2.874236 -0.732000 0.000000 -22.280200 15.391203 -2.116304 3.202961 2.333005 -2.532535 -2.204282 -6.830995 -2.709767 1.158870 11.321406 1.179103 1.478144 -4.256979 -0.361298 2.105129 0.000000 0.000000 0.000000 -8.425135 -3.660793 1.302393 -78.474180 -15.703405 24.600567 -1.979970 -25.206995 -0.014635 6.212700 -0.747718 -0.048965 -0.071288 0.151845 0.000000 0.000000 0.000000 0.000000 0.000000 0.000000 0.000000 20.152402 -2.517447 0.494177 57.532001 1.395018 -9.734966 3.591921 17.819203 0.008990 2.100534 5.189606 0.092585 0.078849 -0.040767 0.000000 0.000000 0.000000 0.000000 0.000000 0.000000 0.000000 
23.208701 16.454686 3.386029 -156.887475 -81.687426 -167.894069 -12.385307 1.989665 -3.458786 -3.060639 10.440120 -16.407692 -0.381209 1.661045 33.545939 2.004195 7.927639 26.591497 3.463799 -0.000000 -70.660100 7.408634 0.634125 4.019207 5.376285 15.873544 -63.170604 1.989421 -1.599473 30.321972 -0.743737 -1.641950 -4.115482 -0.694500 -0.000000 -21.543400 15.509193 -2.257115 3.517841 2.358744 -2.638818 -2.137870 -6.871726 -2.820797 1.110396 11.833653 1.772783 1.781439 -4.258078 -0.361699 2.178578 0.000000 0.000000 0.000000 -7.672481 -4.128783 1.306046 -79.000399 -15.922066 24.184407 -1.946643 -24.812000 -0.015777 6.554744 -0.736770 -0.051184 -0.073135 0.153696 0.000000 0.000000 0.000000 0.000000 0.000000 0.000000 0.000000 20.650262 -2.106698 0.525414 57.291206 2.729309 -11.048801 3.526796 16.959493 0.008496 1.717120 5.036772 0.072881 0.078200 -0.042529 0.000000 0.000000 0.000000 0.000000 0.000000 0.000000 0.000000 
23.088258 16.472945 3.336895 -155.549128 -82.298802 -169.178277 -12.345776 1.835124 -3.502470 -2.703543 10.204527 -17.254287 -0.331773 1.731280 35.135711 2.099866 8.473034 26.956064 3.773700 0.000000 -65.134100 7.414629 0.682701 3.807168 5.643352 15.636053 -62.653352 1.986122 -1.611444 30.781124 -0.885482 -2.024003 -5.140374 -0.664100 -0.000000 -21.085700 15.581037 -2.401214 3.781051 2.377981 -2.754347 -2.078908 -6.898707 -2.940366 1.071033 12.332377 2.280218 2.082355 -4.252052 -0.361799 2.252305 0.000000 0.000000 0.000000 -6.896584 -4.643993 1.301227 -79.479188 -16.152812 23.989560 -1.928798 -24.511226 -0.016557 6.749001 -0.695514 -0.050298 -0.075077 0.155453 0.000000 0.000000 0.000000 0.000000 0.000000 0.000000 0.000000 21.107097 -1.779365 0.547982 57.115220 4.054575 -12.366088 3.442251 16.260825 0.007975 1.201245 4.926279 0.048978 0.077794 -0.044955 0.000000 0.000000 0.000000 0.000000 0.000000 0.000000 0.000000 
22.968789 16.493633 3.287564 -154.357771 -83.012216 -170.321199 -12.295751 1.692468 -3.514789 -2.427661 9.870470 -18.146426 -0.284610 1.799488 36.684663 2.196468 9.238658 27.016358 4.185700 0.000000 -59.771300 7.442433 0.733711 3.602680 5.850853 15.269246 -62.098645 1.979527 -1.614439 31.074490 -1.021238 -2.431583 -5.934361 -0.642800 -0.000000 -20.913600 15.628859 -2.539308 3.981105 2.395320 -2.872089 -2.029546 -6.912027 -3.061473 1.044550 12.799229 2.706379 2.373098 -4.239410 -0.361598 2.324215 0.000000 0.000000 0.000000 -6.153789 -5.154431 1.290384 -79.889065 -16.439579 24.084532 -1.930667 -24.295310 -0.016893 6.764115 -0.616039 -0.045806 -0.076972 0.157123 0.000000 0.000000 0.000000 0.000000 0.000000 0.000000 0.000000 21.507442 -1.520900 0.559103 57.002373 5.337156 -13.662039 3.341529 15.761669 0.007438 0.576214 4.883808 0.021678 0.077537 -0.048063 0.000000 0.000000 0.000000 0.000000 0.000000 0.000000 0.000000 
22.849599 16.516735 3.239133 -153.082537 -83.823919 -171.541565 -12.237519 1.553547 -3.495173 -2.211270 9.452995 -19.090843 -0.233540 1.860884 38.178212 2.293352 10.197084 26.763727 4.676201 -0.000000 -54.816500 7.486463 0.772704 3.415097 6.021832 14.796876 -61.537096 1.973415 -1.613585 31.227230 -1.147883 -2.848387 -6.515941 -0.632299 0.000000 -20.907400 15.686649 -2.663655 4.108882 2.417923 -2.985751 -1.993741 -6.913202 -3.178116 1.025529 13.220722 3.033841 2.652491 -4.223340 -0.361330 2.394205 0.000000 0.000000 0.000000 -5.474714 -5.700453 1.274181 -80.215607 -16.742442 24.403955 -1.947894 -24.200105 -0.016750 6.590384 -0.503419 -0.038208 -0.078221 0.158734 0.000000 0.000000 0.000000 0.000000 0.000000 0.000000 0.000000 21.850480 -1.349530 0.562180 56.926660 6.570259 -14.796366 3.229092 15.490442 0.006855 -0.165494 4.912899 -0.010322 0.077606 -0.051716 0.000000 0.000000 0.000000 0.000000 0.000000 0.000000 0.000000 
